<mxfile host="app.diagrams.net" modified="2024-04-30T20:28:42.044Z" agent="Mozilla/5.0 (Macintosh; Intel Mac OS X 10_15_7) AppleWebKit/605.1.15 (KHTML, like Gecko) Version/17.2.1 Safari/605.1.15" etag="5GZBF7tuhHWY4KqHjTnS" version="24.3.1" type="device">
  <diagram name="Página-1" id="BPZYwpUaBo1m4roUAAAN">
    <mxGraphModel dx="954" dy="540" grid="1" gridSize="10" guides="1" tooltips="1" connect="1" arrows="1" fold="1" page="1" pageScale="1" pageWidth="850" pageHeight="1100" math="0" shadow="0">
      <root>
        <mxCell id="0" />
        <mxCell id="1" parent="0" />
        <mxCell id="5ukBIivrScnrmxDE7Drp-25" style="edgeStyle=orthogonalEdgeStyle;rounded=0;orthogonalLoop=1;jettySize=auto;html=1;exitX=0.5;exitY=1;exitDx=0;exitDy=0;entryX=0.5;entryY=0;entryDx=0;entryDy=0;" edge="1" parent="1" source="5ukBIivrScnrmxDE7Drp-3" target="5ukBIivrScnrmxDE7Drp-5">
          <mxGeometry relative="1" as="geometry" />
        </mxCell>
        <mxCell id="5ukBIivrScnrmxDE7Drp-26" style="edgeStyle=orthogonalEdgeStyle;rounded=0;orthogonalLoop=1;jettySize=auto;html=1;exitX=1;exitY=0.5;exitDx=0;exitDy=0;entryX=0.5;entryY=0;entryDx=0;entryDy=0;" edge="1" parent="1" source="5ukBIivrScnrmxDE7Drp-3" target="5ukBIivrScnrmxDE7Drp-6">
          <mxGeometry relative="1" as="geometry" />
        </mxCell>
        <mxCell id="5ukBIivrScnrmxDE7Drp-3" value="" style="rhombus;whiteSpace=wrap;html=1;" vertex="1" parent="1">
          <mxGeometry x="60" y="120" width="80" height="80" as="geometry" />
        </mxCell>
        <mxCell id="5ukBIivrScnrmxDE7Drp-5" value="" style="rounded=0;whiteSpace=wrap;html=1;" vertex="1" parent="1">
          <mxGeometry x="40" y="220" width="120" height="60" as="geometry" />
        </mxCell>
        <mxCell id="5ukBIivrScnrmxDE7Drp-27" style="edgeStyle=orthogonalEdgeStyle;rounded=0;orthogonalLoop=1;jettySize=auto;html=1;exitX=0.5;exitY=1;exitDx=0;exitDy=0;entryX=0.5;entryY=0;entryDx=0;entryDy=0;" edge="1" parent="1" source="5ukBIivrScnrmxDE7Drp-6" target="5ukBIivrScnrmxDE7Drp-7">
          <mxGeometry relative="1" as="geometry" />
        </mxCell>
        <mxCell id="5ukBIivrScnrmxDE7Drp-28" style="edgeStyle=orthogonalEdgeStyle;rounded=0;orthogonalLoop=1;jettySize=auto;html=1;exitX=1;exitY=0.5;exitDx=0;exitDy=0;entryX=0.5;entryY=0;entryDx=0;entryDy=0;" edge="1" parent="1" source="5ukBIivrScnrmxDE7Drp-6" target="5ukBIivrScnrmxDE7Drp-9">
          <mxGeometry relative="1" as="geometry" />
        </mxCell>
        <mxCell id="5ukBIivrScnrmxDE7Drp-6" value="" style="rhombus;whiteSpace=wrap;html=1;" vertex="1" parent="1">
          <mxGeometry x="190" y="210" width="80" height="80" as="geometry" />
        </mxCell>
        <mxCell id="5ukBIivrScnrmxDE7Drp-7" value="" style="rounded=0;whiteSpace=wrap;html=1;" vertex="1" parent="1">
          <mxGeometry x="170" y="310" width="120" height="60" as="geometry" />
        </mxCell>
        <mxCell id="5ukBIivrScnrmxDE7Drp-29" style="edgeStyle=orthogonalEdgeStyle;rounded=0;orthogonalLoop=1;jettySize=auto;html=1;exitX=0.5;exitY=1;exitDx=0;exitDy=0;entryX=0.5;entryY=0;entryDx=0;entryDy=0;" edge="1" parent="1" source="5ukBIivrScnrmxDE7Drp-9" target="5ukBIivrScnrmxDE7Drp-10">
          <mxGeometry relative="1" as="geometry" />
        </mxCell>
        <mxCell id="5ukBIivrScnrmxDE7Drp-30" style="edgeStyle=orthogonalEdgeStyle;rounded=0;orthogonalLoop=1;jettySize=auto;html=1;exitX=1;exitY=0.5;exitDx=0;exitDy=0;entryX=0.5;entryY=0;entryDx=0;entryDy=0;" edge="1" parent="1" source="5ukBIivrScnrmxDE7Drp-9" target="5ukBIivrScnrmxDE7Drp-11">
          <mxGeometry relative="1" as="geometry" />
        </mxCell>
        <mxCell id="5ukBIivrScnrmxDE7Drp-9" value="" style="rhombus;whiteSpace=wrap;html=1;" vertex="1" parent="1">
          <mxGeometry x="325" y="300" width="80" height="80" as="geometry" />
        </mxCell>
        <mxCell id="5ukBIivrScnrmxDE7Drp-10" value="" style="rounded=0;whiteSpace=wrap;html=1;" vertex="1" parent="1">
          <mxGeometry x="305" y="400" width="120" height="60" as="geometry" />
        </mxCell>
        <mxCell id="5ukBIivrScnrmxDE7Drp-31" style="edgeStyle=orthogonalEdgeStyle;rounded=0;orthogonalLoop=1;jettySize=auto;html=1;exitX=0.5;exitY=1;exitDx=0;exitDy=0;entryX=0.5;entryY=0;entryDx=0;entryDy=0;" edge="1" parent="1" source="5ukBIivrScnrmxDE7Drp-11" target="5ukBIivrScnrmxDE7Drp-12">
          <mxGeometry relative="1" as="geometry" />
        </mxCell>
        <mxCell id="5ukBIivrScnrmxDE7Drp-32" style="edgeStyle=orthogonalEdgeStyle;rounded=0;orthogonalLoop=1;jettySize=auto;html=1;exitX=1;exitY=0.5;exitDx=0;exitDy=0;entryX=0.5;entryY=0;entryDx=0;entryDy=0;" edge="1" parent="1" source="5ukBIivrScnrmxDE7Drp-11" target="5ukBIivrScnrmxDE7Drp-13">
          <mxGeometry relative="1" as="geometry" />
        </mxCell>
        <mxCell id="5ukBIivrScnrmxDE7Drp-11" value="" style="rhombus;whiteSpace=wrap;html=1;" vertex="1" parent="1">
          <mxGeometry x="460" y="390" width="80" height="80" as="geometry" />
        </mxCell>
        <mxCell id="5ukBIivrScnrmxDE7Drp-12" value="" style="rounded=0;whiteSpace=wrap;html=1;" vertex="1" parent="1">
          <mxGeometry x="440" y="490" width="120" height="60" as="geometry" />
        </mxCell>
        <mxCell id="5ukBIivrScnrmxDE7Drp-33" style="edgeStyle=orthogonalEdgeStyle;rounded=0;orthogonalLoop=1;jettySize=auto;html=1;exitX=0.5;exitY=1;exitDx=0;exitDy=0;entryX=0.5;entryY=0;entryDx=0;entryDy=0;" edge="1" parent="1" source="5ukBIivrScnrmxDE7Drp-13" target="5ukBIivrScnrmxDE7Drp-14">
          <mxGeometry relative="1" as="geometry" />
        </mxCell>
        <mxCell id="5ukBIivrScnrmxDE7Drp-34" style="edgeStyle=orthogonalEdgeStyle;rounded=0;orthogonalLoop=1;jettySize=auto;html=1;exitX=1;exitY=0.5;exitDx=0;exitDy=0;entryX=0.5;entryY=0;entryDx=0;entryDy=0;" edge="1" parent="1" source="5ukBIivrScnrmxDE7Drp-13" target="5ukBIivrScnrmxDE7Drp-15">
          <mxGeometry relative="1" as="geometry" />
        </mxCell>
        <mxCell id="5ukBIivrScnrmxDE7Drp-13" value="" style="rhombus;whiteSpace=wrap;html=1;" vertex="1" parent="1">
          <mxGeometry x="590" y="480" width="80" height="80" as="geometry" />
        </mxCell>
        <mxCell id="5ukBIivrScnrmxDE7Drp-14" value="" style="rounded=0;whiteSpace=wrap;html=1;" vertex="1" parent="1">
          <mxGeometry x="570" y="580" width="120" height="60" as="geometry" />
        </mxCell>
        <mxCell id="5ukBIivrScnrmxDE7Drp-35" style="edgeStyle=orthogonalEdgeStyle;rounded=0;orthogonalLoop=1;jettySize=auto;html=1;exitX=0.5;exitY=1;exitDx=0;exitDy=0;entryX=0.5;entryY=0;entryDx=0;entryDy=0;" edge="1" parent="1" source="5ukBIivrScnrmxDE7Drp-15" target="5ukBIivrScnrmxDE7Drp-16">
          <mxGeometry relative="1" as="geometry" />
        </mxCell>
        <mxCell id="5ukBIivrScnrmxDE7Drp-36" style="edgeStyle=orthogonalEdgeStyle;rounded=0;orthogonalLoop=1;jettySize=auto;html=1;exitX=1;exitY=0.5;exitDx=0;exitDy=0;entryX=0.5;entryY=0;entryDx=0;entryDy=0;" edge="1" parent="1" source="5ukBIivrScnrmxDE7Drp-15" target="5ukBIivrScnrmxDE7Drp-17">
          <mxGeometry relative="1" as="geometry" />
        </mxCell>
        <mxCell id="5ukBIivrScnrmxDE7Drp-15" value="" style="rhombus;whiteSpace=wrap;html=1;" vertex="1" parent="1">
          <mxGeometry x="720" y="570" width="80" height="80" as="geometry" />
        </mxCell>
        <mxCell id="5ukBIivrScnrmxDE7Drp-16" value="" style="rounded=0;whiteSpace=wrap;html=1;" vertex="1" parent="1">
          <mxGeometry x="700" y="670" width="120" height="60" as="geometry" />
        </mxCell>
        <mxCell id="5ukBIivrScnrmxDE7Drp-37" style="edgeStyle=orthogonalEdgeStyle;rounded=0;orthogonalLoop=1;jettySize=auto;html=1;exitX=0.5;exitY=1;exitDx=0;exitDy=0;entryX=0.5;entryY=0;entryDx=0;entryDy=0;" edge="1" parent="1" source="5ukBIivrScnrmxDE7Drp-17" target="5ukBIivrScnrmxDE7Drp-19">
          <mxGeometry relative="1" as="geometry" />
        </mxCell>
        <mxCell id="5ukBIivrScnrmxDE7Drp-38" style="edgeStyle=orthogonalEdgeStyle;rounded=0;orthogonalLoop=1;jettySize=auto;html=1;exitX=1;exitY=0.5;exitDx=0;exitDy=0;entryX=0.5;entryY=0;entryDx=0;entryDy=0;" edge="1" parent="1" source="5ukBIivrScnrmxDE7Drp-17" target="5ukBIivrScnrmxDE7Drp-18">
          <mxGeometry relative="1" as="geometry" />
        </mxCell>
        <mxCell id="5ukBIivrScnrmxDE7Drp-17" value="" style="rhombus;whiteSpace=wrap;html=1;" vertex="1" parent="1">
          <mxGeometry x="850" y="660" width="80" height="80" as="geometry" />
        </mxCell>
        <mxCell id="5ukBIivrScnrmxDE7Drp-39" style="edgeStyle=orthogonalEdgeStyle;rounded=0;orthogonalLoop=1;jettySize=auto;html=1;exitX=0.5;exitY=1;exitDx=0;exitDy=0;entryX=0.5;entryY=0;entryDx=0;entryDy=0;" edge="1" parent="1" source="5ukBIivrScnrmxDE7Drp-18" target="5ukBIivrScnrmxDE7Drp-21">
          <mxGeometry relative="1" as="geometry" />
        </mxCell>
        <mxCell id="5ukBIivrScnrmxDE7Drp-18" value="Acción no válida" style="rounded=0;whiteSpace=wrap;html=1;" vertex="1" parent="1">
          <mxGeometry x="960" y="760" width="120" height="60" as="geometry" />
        </mxCell>
        <mxCell id="5ukBIivrScnrmxDE7Drp-19" value="" style="rounded=0;whiteSpace=wrap;html=1;" vertex="1" parent="1">
          <mxGeometry x="830" y="760" width="120" height="60" as="geometry" />
        </mxCell>
        <mxCell id="5ukBIivrScnrmxDE7Drp-21" value="Fin" style="ellipse;whiteSpace=wrap;html=1;" vertex="1" parent="1">
          <mxGeometry x="960" y="840" width="120" height="80" as="geometry" />
        </mxCell>
        <mxCell id="5ukBIivrScnrmxDE7Drp-22" value="Inicio" style="ellipse;whiteSpace=wrap;html=1;" vertex="1" parent="1">
          <mxGeometry x="40" y="20" width="120" height="80" as="geometry" />
        </mxCell>
        <mxCell id="5ukBIivrScnrmxDE7Drp-45" value="No" style="text;html=1;align=center;verticalAlign=middle;whiteSpace=wrap;rounded=0;" vertex="1" parent="1">
          <mxGeometry x="120" y="130" width="60" height="30" as="geometry" />
        </mxCell>
        <mxCell id="5ukBIivrScnrmxDE7Drp-53" value="No" style="text;html=1;align=center;verticalAlign=middle;whiteSpace=wrap;rounded=0;" vertex="1" parent="1">
          <mxGeometry x="250" y="220" width="60" height="30" as="geometry" />
        </mxCell>
        <mxCell id="5ukBIivrScnrmxDE7Drp-55" value="No" style="text;html=1;align=center;verticalAlign=middle;whiteSpace=wrap;rounded=0;" vertex="1" parent="1">
          <mxGeometry x="390" y="310" width="60" height="30" as="geometry" />
        </mxCell>
        <mxCell id="5ukBIivrScnrmxDE7Drp-56" value="No" style="text;html=1;align=center;verticalAlign=middle;whiteSpace=wrap;rounded=0;" vertex="1" parent="1">
          <mxGeometry x="520" y="400" width="60" height="30" as="geometry" />
        </mxCell>
        <mxCell id="5ukBIivrScnrmxDE7Drp-57" value="No" style="text;html=1;align=center;verticalAlign=middle;whiteSpace=wrap;rounded=0;" vertex="1" parent="1">
          <mxGeometry x="660" y="490" width="60" height="30" as="geometry" />
        </mxCell>
        <mxCell id="5ukBIivrScnrmxDE7Drp-58" value="No" style="text;html=1;align=center;verticalAlign=middle;whiteSpace=wrap;rounded=0;" vertex="1" parent="1">
          <mxGeometry x="780" y="580" width="60" height="30" as="geometry" />
        </mxCell>
        <mxCell id="5ukBIivrScnrmxDE7Drp-59" value="No" style="text;html=1;align=center;verticalAlign=middle;whiteSpace=wrap;rounded=0;" vertex="1" parent="1">
          <mxGeometry x="910" y="670" width="60" height="30" as="geometry" />
        </mxCell>
      </root>
    </mxGraphModel>
  </diagram>
</mxfile>
